<svg
    xmlns="http://www.w3.org/2000/svg" viewBox="0 0 56 56">
    <circle cx="28" cy="28" r="28" fill="#e57e25"/>
    <path d="M.729 30.188c3.621-3.458 9.574-4.556 13.853-2.558a52.712 52.712 0 00-8.155 18.219c.471.569.968 1.114 1.482 1.643a.975.975 0 00.296-.503 50.687 50.687 0 018.075-18.296c2.555 1.983 3.809 5.247 3.525 9.435l-.004.054.002.055c.251 6.063 3.746 11.611 9.348 14.839a19.121 19.121 0 005.466 2.129 27.807 27.807 0 004.784-1.634c-3.049.236-6.277-.514-9.252-2.228-4.989-2.875-8.105-7.782-8.346-13.136.395-6.064-2.008-9.374-4.324-11.145a51.27 51.27 0 014.858-5.488 219.7 219.7 0 0120.076 21.313l4.313 5.247 1.545-1.271-4.313-5.247A221.684 221.684 0 0023.798 20.2a51.173 51.173 0 014.373-3.543c2.39 3.021 6.233 4.501 11.036 4.185 4.519.205 8.76 2.665 11.643 6.754 2.242 3.18 3.383 6.962 3.269 10.49a27.82 27.82 0 001.417-5.033 20.22 20.22 0 00-3.051-6.609c-3.255-4.617-8.084-7.388-13.248-7.602l-.055-.002-.054.004c-4.07.274-7.294-.911-9.295-3.34a50.68 50.68 0 0117.155-7.3.977.977 0 00.498-.302 27.962 27.962 0 00-1.639-1.477 52.673 52.673 0 00-17.109 7.407c-1.946-3.908-1.265-9.4 1.667-13.169l.407-.523A28.374 28.374 0 0028 0v.614c-2.774 4.391-3.187 10.109-.926 14.371a53.384 53.384 0 00-4.753 3.857 220.671 220.671 0 00-10.053-8.674L8.953 7.484c-.492.457-.966.931-1.424 1.422l3.481 2.818a218.243 218.243 0 019.855 8.497 53.338 53.338 0 00-5.085 5.772c-.114-.058-.23-.118-.339-.169C10.698 23.603 4.46 24.534.19 28H0c0 .93.048 1.848.136 2.754l.593-.566z" fill="#38454f"/>
</svg>